# xmcd CD database file
#
# Track frame offsets:
#	150
#	20697
#	34224
#	47847
#	62418
#	76777
#	90694
#	101650
#	113117
#	125427
#	137439
#	151781
#
# Disc length: 2187 seconds
#
# Revision: 0
# Processed by: cddbd v1.5.2PL0 Copyright (c) Steve Scherf et al.
# Submitted via: CDex 1.70beta2
#
DISCID=8f08890c
DTITLE=Louis Prima - Just a gigolo (Compilation)
DYEAR=2001
DGENRE=Country
TTITLE0=Louis Prima  Just a gigolo I ain't got nobody 
TTITLE1=Louis Prima  Brooklyn boogie 
TTITLE2=Louis Prima  Sing sing sing 
TTITLE3=Louis Prima  I wonder 
TTITLE4=Louis Prima  Caldonia 
TTITLE5=Louis Prima  Felicia no capicia 
TTITLE6=Louis Prima  St Louis blues 
TTITLE7=Louis Prima  Josephina
TTITLE8=Louis Prima  Boogie woogie 
TTITLE9=Louis Prima  Marguerita
TTITLE10=Louis Prima  Chinatown
TTITLE11=Louis Prima  Angelina
EXTD=YEAR: 2001
EXTT0=
EXTT1=
EXTT2=
EXTT3=
EXTT4=
EXTT5=
EXTT6=
EXTT7=
EXTT8=
EXTT9=
EXTT10=
EXTT11=
PLAYORDER=
